<svg width="7" height="7" viewBox="0 0 7 7" fill="none" xmlns="http://www.w3.org/2000/svg">
<g clip-path="url(#clip0_201_17279)">
<path d="M3.33204 2.22071C3.62661 2.22071 3.90912 2.33773 4.11741 2.54602C4.32571 2.75432 4.44273 3.03682 4.44273 3.33139C4.44273 3.62597 4.32571 3.90847 4.11741 4.11677C3.90912 4.32506 3.62661 4.44208 3.33204 4.44208C3.03747 4.44208 2.75497 4.32506 2.54667 4.11677C2.33838 3.90847 2.22136 3.62597 2.22136 3.33139C2.22136 3.03682 2.33838 2.75432 2.54667 2.54602C2.75497 2.33773 3.03747 2.22071 3.33204 2.22071ZM3.33204 2.77605C3.18476 2.77605 3.0435 2.83456 2.93936 2.93871C2.83521 3.04286 2.7767 3.18411 2.7767 3.33139C2.7767 3.47868 2.83521 3.61993 2.93936 3.72408C3.0435 3.82823 3.18476 3.88674 3.33204 3.88674C3.47933 3.88674 3.62058 3.82823 3.72473 3.72408C3.82888 3.61993 3.88738 3.47868 3.88738 3.33139C3.88738 3.18411 3.82888 3.04286 3.72473 2.93871C3.62058 2.83456 3.47933 2.77605 3.33204 2.77605ZM2.7767 6.1081C2.70728 6.1081 2.64897 6.05812 2.63787 5.99148L2.53513 5.25565C2.3602 5.18623 2.21025 5.09183 2.06586 4.98076L1.37446 5.26121C1.31338 5.28342 1.23841 5.2612 1.20509 5.20012L0.649745 4.23938C0.613647 4.17829 0.630308 4.10332 0.683065 4.06167L1.26895 3.60073L1.24951 3.33139L1.26895 3.05372L0.683065 2.60112C0.630308 2.55947 0.613647 2.4845 0.649745 2.42341L1.20509 1.46267C1.23841 1.40158 1.31338 1.37659 1.37446 1.40158L2.06586 1.67925C2.21025 1.57096 2.3602 1.47655 2.53513 1.40714L2.63787 0.671309C2.64897 0.604668 2.70728 0.554688 2.7767 0.554688H3.88738C3.9568 0.554688 4.01511 0.604668 4.02622 0.671309L4.12896 1.40714C4.30389 1.47655 4.45383 1.57096 4.59822 1.67925L5.28962 1.40158C5.35071 1.37659 5.42568 1.40158 5.459 1.46267L6.01434 2.42341C6.05044 2.4845 6.03378 2.55947 5.98102 2.60112L5.39514 3.05372L5.41457 3.33139L5.39514 3.60906L5.98102 4.06167C6.03378 4.10332 6.05044 4.17829 6.01434 4.23938L5.459 5.20012C5.42568 5.2612 5.35071 5.2862 5.28962 5.26121L4.59822 4.98353C4.45383 5.09183 4.30389 5.18623 4.12896 5.25565L4.02622 5.99148C4.01511 6.05812 3.9568 6.1081 3.88738 6.1081H2.7767ZM3.12379 1.11003L3.02105 1.83475C2.68785 1.90417 2.39352 2.08188 2.17971 2.329L1.51052 2.04023L1.30227 2.4012L1.88816 2.83159C1.77709 3.15646 1.77709 3.5091 1.88816 3.8312L1.29949 4.26437L1.50775 4.62534L2.18249 4.33656C2.39629 4.58091 2.68785 4.75862 3.01828 4.82526L3.12101 5.55276H3.54307L3.64581 4.82804C3.97624 4.75862 4.26779 4.58091 4.4816 4.33656L5.15634 4.62534L5.36459 4.26437L4.77593 3.83398C4.887 3.5091 4.887 3.15646 4.77593 2.83159L5.36182 2.4012L5.15356 2.04023L4.48438 2.329C4.27057 2.08188 3.97624 1.90417 3.64303 1.83753L3.5403 1.11003H3.12379Z" fill="black"/>
</g>
<defs>
<clipPath id="clip0_201_17279">
<rect width="6.6641" height="6.6641" fill="white"/>
</clipPath>
</defs>
</svg>
